# xmcd CD database file
#
# Track frame offsets:
#	150
#	17460
#	39710
#	57517
#	76842
#	91920
#	109227
#	124647
#	143092
#	161727
#	182227
#
# Disc length: 2535 seconds
#
# Revision: 2
# Processed by: cddbd v1.4b41PL1 Copyright (c) Steve Scherf et al.
# Submitted via: Feurio! 1.51.12ß - http://www.feurio.com
#
DISCID=8b09e50b
DTITLE=Second Decay - Hotels
DYEAR=1900
DGENRE=
TTITLE0=lauf der zeit
TTITLE1=deep inside me
TTITLE2=ohne dich
TTITLE3=land unter
TTITLE4=your mark on me
TTITLE5=die herbstzeitlose
TTITLE6=der mann im spiegel
TTITLE7=land unter mir
TTITLE8=medea twin
TTITLE9=das steht dir gut
TTITLE10=hotel
EXTD=
EXTT0=
EXTT1=
EXTT2=
EXTT3=
EXTT4=
EXTT5=
EXTT6=
EXTT7=
EXTT8=
EXTT9=
EXTT10=
PLAYORDER=
